<svg viewBox="0 0 256 288" xmlns="http://www.w3.org/2000/svg">
  <path fill="#83CD29" d="M128 0L0 72v144l128 72 128-72V72L128 0z"></path>
  <path fill="#fff" d="M180.3 171.4c0-11.2-5.9-14.7-17.7-17.1l-6-1.3c-9.3-1.8-13.2-3-13.2-6.6s3.5-6.1 9.1-6.1c7.1 0 11.6 2.5 14.1 7.9 0.3 0.6 0.9 0.8 1.6 0.6l12.4-3.6c0.7-0.2 1.1-1 0.8-1.6-3.9-11.6-14.4-17.4-29.2-17.4-16.7 0-28.3 8.7-28.3 21.6 0 13.6 8.4 18.2 21.8 21.1l5.7 1.3c10.3 2.2 13.9 3.7 13.9 7.1 0 4.5-5.4 7.2-13.8 7.2-11.1 0-17.7-3-21.2-10.2-0.3-0.6-1-0.9-1.7-0.7l-12.6 3.3c-0.7 0.2-1.1 1-0.8 1.6 4.8 13.8 16.6 20.9 35.9 20.9 17.7 0 30.3-8.6 30.3-22.5z"></path>
</svg>
