<svg viewBox="0 0 256 256" xmlns="http://www.w3.org/2000/svg">
  <rect width="256" height="256" rx="20" fill="#3178C6"></rect>
  <path fill="#fff" d="M124 113h-19v93h-20v-93H66v-16h58v16zm52 93c-11.3 0-19.3-2.6-25.5-7.9-4.4-3.8-6.8-7.3-8.7-12.5l17-7.1c1.7 3.6 3.3 5.7 5.7 7.5 3.4 2.5 7.5 3.7 13.2 3.7 8.4 0 13.7-3.3 13.7-9.1 0-2.2-.7-4-2-5.4-1.4-1.5-3.3-2.7-9.7-4.9l-6.6-2.3c-9.4-3.3-15.7-7.3-19.2-11.7-3.5-4.4-5.2-9.4-5.2-15.2 0-5.5 1.5-10.3 4.5-14.4 3-4 7.1-7.1 12.3-9.2 5.2-2.1 11.3-3.1 18.1-3.1 8.4 0 15.2 1.5 21.1 4.5 6 3 10.3 7.5 13.2 13.5l-16.7 7.7c-1.4-2.7-2.9-4.6-4.6-6-3.1-2.4-7.1-3.7-12-3.7-4.4 0-7.8 1-10.4 3-2.6 2-3.9 4.7-3.9 8.1 0 2.1.5 3.9 1.5 5.5 1 1.6 2.4 2.9 4.1 3.9 1.8 1 5.6 2.5 11.4 4.5 9 3.1 15.3 6.9 19 11.4 3.7 4.5 5.6 9.9 5.6 16.3 0 5.8-1.6 11-4.7 15.3-3.1 4.3-7.4 7.6-13.1 9.9-5.6 2.2-12.2 3.3-19.8 3.3z"></path>
</svg>
